<svg width="20" height="20" viewBox="0 0 30 40" fill="none" xmlns="http://www.w3.org/2000/svg">
<path fill-rule="evenodd" clip-rule="evenodd" d="M15.6827 35L15.7102 34.9848L15.7378 35L23.5497 30.6565L31.4204 26.2827V8.78483L27.8813 10.7519L25.8156 12.0074L21.3027 14.5433V18.5459L27.8813 14.8665V21.2361L27.8811 21.2362L27.8275 24.2474L15.7102 30.9826L3.59296 24.2474L3.53934 21.2362L3.53917 21.2361V10.7519L3.56653 10.7367L3.59296 10.7519L15.7102 4.01721L24.254 8.76581L27.8813 6.74969L15.7371 0L15.7102 0.0150164L15.6833 0L0 8.71684V26.2827L7.87069 30.6565L15.6827 35Z" fill="#3C4B5E"/>
<path fill-rule="evenodd" clip-rule="evenodd" d="M0 0L3.82386 2.2054V7.99583L9.29779 11.1466L14.7719 7.99583V6.96603L18.5957 4.76486V10.2731L9.29779 15.625L0 10.2731V0Z" transform="translate(6.41016 12.5)" fill="#AFAFAF"/>
</svg>