<svg width="240" height="187" fill="none" xmlns="http://www.w3.org/2000/svg">
  <path d="M75.188 109.134l4.024-4.643-13.268-11.966 11.71-13.495-4.56-4.118L61.38 88.407l-4.025 4.643 17.834 16.084z" fill="#2FC29F"/>
  <path d="M88.325 108.331l4.03-4.644-13.268-11.966 11.71-13.494-4.565-4.118-11.71 13.494-4.03 4.644 17.833 16.084z" fill="#2FC29F"/>
  <path d="M133.214 37.628c0 1.136-.791 2.064-1.759 2.064-.823 0-1.526-.66-1.709-1.589h-13.89l-.038-.06-12.143-17.042H85.267c-.183.928-.886 1.59-1.708 1.59-.968 0-1.76-.929-1.76-2.065s.791-2.064 1.76-2.064c.822 0 1.525.66 1.708 1.589h18.788l.038.06 12.143 17.042h13.51" stroke="#CED5E0" stroke-width="2"/>
  <ellipse rx="2.547" ry="2.769" transform="matrix(-1 0 0 1 89.981 159.692)" fill="#CED5E0"/>
  <path d="M201.485 132.923c-.781 0-1.449-.591-1.623-1.421H19.344c-.174.83-.841 1.421-1.622 1.421-.92 0-1.665-.83-1.665-1.846s.751-1.846 1.67-1.846c.782 0 1.449.591 1.623 1.421h180.512c.174-.83.842-1.421 1.623-1.421M.116 119.418h114.486l14.281-17.832c.271.188.579.282.894.282m0-4.022c-.963 0-1.75.904-1.75 2.011 0 .384.094.753.277 1.078l-14.055 17.55H.129" stroke="#CED5E0" stroke-width="2"/>
  <path d="M147.119 159.231l51.951-63.846a2.167 2.167 0 01-.28-1.074c0-1.103.796-2.003 1.769-2.003.973 0 1.769.9 1.769 2.003 0 1.103-.796 2.003-1.769 2.003-.318 0-.63-.093-.903-.28l-52.537 64.006H88.121" stroke="#CED5E0" stroke-width="3"/>
  <path d="M.042 45.23h78.14l18.796 21.662h101.83c.108-1.005.853-1.775 1.75-1.775.974 0 1.769.917 1.769 2.04 0 1.122-.795 2.039-1.769 2.039-.751 0-1.419-.55-1.668-1.357H96.634L77.84 46.177H69.03l-52.4 66.107M.042 46.177h67.943l-51.732 65.161" stroke="#CED5E0" stroke-width="2"/>
  <ellipse rx="2.547" ry="2.769" transform="matrix(-1 0 0 1 84.04 20.308)" fill="#CED5E0"/>
  <ellipse rx="2.547" ry="2.769" transform="matrix(-1 0 0 1 17.827 131.077)" fill="#CED5E0"/>
  <ellipse rx="2.547" ry="2.769" transform="matrix(-1 0 0 1 16.978 110.769)" fill="#CED5E0"/>
  <g filter="url(#filter0_d)">
    <g filter="url(#filter1_f)">
      <path d="M210.222 135.477c-.004 1.785-21.346 3.167-47.667 3.088-26.322-.079-47.656-1.59-47.651-3.374.004-1.784 21.346-3.167 47.667-3.087 26.322.079 47.656 1.589 47.651 3.373z" fill="#8898AA" fill-opacity=".5"/>
    </g>
    <path d="M197.427 32.308h-66.285a8 8 0 00-8 8v94.461h82.285V40.308a8 8 0 00-8-8z" fill="#3B495C"/>
    <path d="M207.143 42.98h-86.857a2 2 0 00-2 2v21.006a2 2 0 002 2h86.857a2 2 0 002-2V44.98a2 2 0 00-2-2z" fill="#5D6A7A"/>
    <path d="M207.143 42.98h-86.857a2 2 0 00-2 2v21.006a2 2 0 002 2h86.857a2 2 0 002-2V44.98a2 2 0 00-2-2z" fill="#fff" fill-opacity=".15"/>
    <path d="M165.827 49.34h-38.285a2 2 0 00-2 2v8.199a2 2 0 002 2h38.285a2 2 0 002-2V51.34a2 2 0 00-2-2z" fill="#C5E1EB"/>
    <path d="M177.269 51.476c.751 0 1.36-.65 1.36-1.452 0-.801-.609-1.451-1.36-1.451-.751 0-1.36.65-1.36 1.451 0 .802.609 1.452 1.36 1.452zM177.269 56.933c.751 0 1.36-.65 1.36-1.451 0-.802-.609-1.452-1.36-1.452-.751 0-1.36.65-1.36 1.452 0 .801.609 1.451 1.36 1.451zM177.269 62.392c.751 0 1.36-.65 1.36-1.451 0-.802-.609-1.452-1.36-1.452-.751 0-1.36.65-1.36 1.452 0 .801.609 1.451 1.36 1.451z" fill="#fff"/>
    <path d="M185.143 61.046V49.912a.572.572 0 10-1.143 0v11.134a.572.572 0 001.143 0zM188.571 61.046V49.912a.572.572 0 00-1.144 0v11.134a.572.572 0 001.144 0zM192.001 61.046V49.912a.572.572 0 10-1.143 0v11.134a.572.572 0 001.143 0zM195.429 61.046V49.912a.572.572 0 00-1.144 0v11.134a.572.572 0 001.144 0zM198.859 61.046V49.912a.572.572 0 10-1.143 0v11.134a.572.572 0 001.143 0z" fill="#F7F9FC"/>
    <path d="M207.143 71.036h-86.857a2 2 0 00-2 2v21.006a2 2 0 002 2h86.857a2 2 0 002-2V73.036a2 2 0 00-2-2z" fill="#5D6A7A"/>
    <path d="M165.827 77.399h-38.285a2 2 0 00-2 2v8.198a2 2 0 002 2h38.285a2 2 0 002-2v-8.198a2 2 0 00-2-2z" fill="#26A6D4"/>
    <path d="M177.269 79.534c.751 0 1.36-.65 1.36-1.452 0-.801-.609-1.451-1.36-1.451-.751 0-1.36.65-1.36 1.451 0 .802.609 1.452 1.36 1.452zM177.269 84.991c.751 0 1.36-.65 1.36-1.451 0-.802-.609-1.452-1.36-1.452-.751 0-1.36.65-1.36 1.452 0 .801.609 1.451 1.36 1.451zM177.269 90.45c.751 0 1.36-.65 1.36-1.451 0-.802-.609-1.452-1.36-1.452-.751 0-1.36.65-1.36 1.452 0 .801.609 1.451 1.36 1.451zM185.143 89.104V77.97a.572.572 0 10-1.143 0v11.134a.572.572 0 001.143 0z" fill="#fff"/>
    <path d="M188.571 89.104V77.97a.572.572 0 00-1.144 0v11.134a.572.572 0 001.144 0z" fill="#F5F5F5"/>
    <path d="M192.001 89.104V77.97a.572.572 0 10-1.143 0v11.134a.572.572 0 001.143 0z" fill="#fff"/>
    <path d="M195.429 89.104V77.97a.572.572 0 00-1.144 0v11.134a.572.572 0 001.144 0z" fill="#F5F5F5"/>
    <path d="M198.859 89.104V77.97a.572.572 0 10-1.143 0v11.134a.572.572 0 001.143 0z" fill="#fff"/>
    <path d="M207.143 99.09h-86.857a2 2 0 00-2 2.001v21.005a2 2 0 002 2h86.857a2 2 0 002-2v-21.005a2 2 0 00-2-2z" fill="#5D6A7A"/>
    <path d="M165.827 105.453h-38.285a2 2 0 00-2 2v8.198a2 2 0 002 2h38.285a2 2 0 002-2v-8.198a2 2 0 00-2-2z" fill="#1F8AB0"/>
    <path d="M177.269 107.586c.751 0 1.36-.65 1.36-1.451 0-.802-.609-1.452-1.36-1.452-.751 0-1.36.65-1.36 1.452 0 .801.609 1.451 1.36 1.451zM177.269 113.045c.751 0 1.36-.649 1.36-1.451s-.609-1.452-1.36-1.452c-.751 0-1.36.65-1.36 1.452 0 .802.609 1.451 1.36 1.451zM177.269 118.505c.751 0 1.36-.65 1.36-1.452 0-.802-.609-1.451-1.36-1.451-.751 0-1.36.649-1.36 1.451s.609 1.452 1.36 1.452z" fill="#fff"/>
    <path d="M185.143 117.159v-11.134a.572.572 0 10-1.143 0v11.134a.572.572 0 001.143 0zM188.571 117.159v-11.134a.572.572 0 10-1.144 0v11.134a.572.572 0 001.144 0zM192.001 117.159v-11.134a.572.572 0 10-1.143 0v11.134a.572.572 0 001.143 0zM195.429 117.159v-11.134a.572.572 0 10-1.144 0v11.134a.572.572 0 001.144 0zM198.859 117.159v-11.134a.572.572 0 10-1.143 0v11.134a.572.572 0 001.143 0z" fill="#F7F9FC"/>
  </g>
  <defs>
    <filter id="filter0_d" x="94.904" y="16.308" width="135.319" height="146.261" filterUnits="userSpaceOnUse" color-interpolation-filters="sRGB">
      <feFlood flood-opacity="0" result="BackgroundImageFix"/>
      <feColorMatrix in="SourceAlpha" values="0 0 0 0 0 0 0 0 0 0 0 0 0 0 0 0 0 0 127 0"/>
      <feOffset dy="4"/>
      <feGaussianBlur stdDeviation="10"/>
      <feColorMatrix values="0 0 0 0 0.533333 0 0 0 0 0.596078 0 0 0 0 0.666667 0 0 0 0.3 0"/>
      <feBlend in2="BackgroundImageFix" result="effect1_dropShadow"/>
      <feBlend in="SourceGraphic" in2="effect1_dropShadow" result="shape"/>
    </filter>
    <filter id="filter1_f" x="104.904" y="122.1" width="115.319" height="26.468" filterUnits="userSpaceOnUse" color-interpolation-filters="sRGB">
      <feFlood flood-opacity="0" result="BackgroundImageFix"/>
      <feBlend in="SourceGraphic" in2="BackgroundImageFix" result="shape"/>
      <feGaussianBlur stdDeviation="5" result="effect1_foregroundBlur"/>
    </filter>
  </defs>
</svg>
