<svg xmlns="http://www.w3.org/2000/svg" viewBox="0 0 341.4 386.13">
  <g fill="#00AEEF">
    <path
      d="M170.4 386.13l.3-.16.3.16 84.88-47.92 85.52-48.25V96.92l-38.46 21.7-22.44 13.85-49.04 27.98v44.15l71.48-40.59v70.28l-.58 33.22-131.66 74.3-131.66-74.3-.58-33.22-.01-.01V118.62l.3-.17.29.17 131.66-74.3 92.83 52.39 39.41-22.24L170.99 0l-.29.16-.29-.16L0 96.17v193.79l85.52 48.25 84.88 47.92z"></path>
    <path d="M67.48 134.7l42.45 24.01v63.02l60.76 34.29 60.77-34.29v-11.21l42.45-23.96v59.95l-103.22 58.25-103.21-58.25V134.7z"></path>
  </g>
</svg>
