<svg width="240" height="172" fill="none"
  xmlns="http://www.w3.org/2000/svg">
  <mask id="a" maskUnits="userSpaceOnUse" x="0" y="0" width="240" height="172">
    <rect width="240" height="171.429" rx="20" fill="#F5F5F5"/>
  </mask>
  <g mask="url(#a)">
    <g filter="url(#filter0_f)">
      <path d="M129.707 123.106c-.005 1.894-21.576 3.369-48.18 3.296-26.605-.073-48.169-1.668-48.163-3.561.005-1.894 21.577-3.369 48.181-3.296 26.605.073 48.168 1.668 48.162 3.561z" fill="#8898AA" fill-opacity=".5"/>
    </g>
    <path d="M247.742 41.8h-51.63L176.376 22.28h-9.25l-55.024 59.567H36.989m210.753-40.9h-51.269l-19.736-19.52H64.041l-12.578 12.44a1.804 1.804 0 00-.722-.145c-1.022 0-1.858.826-1.858 1.837 0 1.011.836 1.838 1.858 1.838 1.023 0 1.858-.827 1.858-1.838 0-.436-.153-.846-.434-1.176L64.402 22.28H166.03l-54.323 58.715" stroke="#CED5E0" stroke-width="2"/>
    <path d="M88.172 43.654h43.011l12.473-12.395" stroke="#CED5E0" stroke-width="3"/>
    <path d="M119.571 88.704l24.044-27.33h62.738c.188-.867.908-1.483 1.751-1.483.992 0 1.802.866 1.802 1.926s-.81 1.926-1.802 1.926c-.837 0-1.557-.617-1.745-1.476h-62.381l-23.752 26.998" stroke="#CED5E0" stroke-width="2"/>
    <circle r="2.571" transform="matrix(1 0 0 -1 208.286 61.714)" fill="#CED5E0"/>
    <circle transform="matrix(1 0 0 -1 226.286 130.286)" fill="#CED5E0" r="2.571"/>
    <path d="M49.463 116.143h97.204l9.463-9.429h98.064" stroke="#CED5E0" stroke-width="3"/>
    <path d="M179.355 107.143l14.194 22.714h34.839" stroke="#CED5E0" stroke-width="3"/>
    <ellipse rx="2.581" ry="2.565" transform="matrix(-1 0 0 1 143.656 31.687)" fill="#CED5E0"/>
    <g filter="url(#filter1_d)">
      <path d="M110.001 26.571H43.715a8 8 0 00-8 8v87.143h82.286V34.571a8 8 0 00-8-8z" fill="#3B495C"/>
      <path d="M119.714 36.483H32.857a2 2 0 00-2 2v19.22a2 2 0 002 2h86.857a2 2 0 002-2v-19.22a2 2 0 00-2-2z" fill="#5D6A7A"/>
      <path d="M119.714 36.483H32.857a2 2 0 00-2 2v19.22a2 2 0 002 2h86.857a2 2 0 002-2v-19.22a2 2 0 00-2-2z" fill="#fff" fill-opacity=".15"/>
      <path d="M78.402 42.39H40.116a2 2 0 00-2 2v7.326a2 2 0 002 2h38.286a2 2 0 002-2V44.39a2 2 0 00-2-2z" fill="#C5E1EB"/>
      <path d="M89.842 44.372c.75 0 1.36-.604 1.36-1.348 0-.745-.61-1.348-1.36-1.348-.751 0-1.36.603-1.36 1.348 0 .744.609 1.348 1.36 1.348zM89.842 49.439c.75 0 1.36-.603 1.36-1.348 0-.744-.61-1.348-1.36-1.348-.751 0-1.36.604-1.36 1.348 0 .745.609 1.348 1.36 1.348zM89.842 54.508c.75 0 1.36-.604 1.36-1.348 0-.744-.61-1.348-1.36-1.348-.751 0-1.36.604-1.36 1.348 0 .745.609 1.348 1.36 1.348z" fill="#fff"/>
      <path d="M97.715 53.218V42.961a.571.571 0 10-1.142 0v10.257a.572.572 0 001.142 0zM101.144 53.218V42.961a.571.571 0 00-1.143 0v10.257a.572.572 0 001.143 0zM104.571 53.218V42.961a.572.572 0 00-1.143 0v10.257a.571.571 0 101.143 0zM108.001 53.218V42.961a.571.571 0 00-1.143 0v10.257a.572.572 0 001.143 0zM111.43 53.218V42.961a.572.572 0 00-1.143 0v10.257a.571.571 0 101.143 0z" fill="#F7F9FC"/>
      <path d="M119.714 62.533H32.857a2 2 0 00-2 2v19.22a2 2 0 002 2h86.857a2 2 0 002-2v-19.22a2 2 0 00-2-2z" fill="#5D6A7A"/>
      <path d="M78.402 68.44H40.116a2 2 0 00-2 2v7.326a2 2 0 002 2h38.286a2 2 0 002-2v-7.327a2 2 0 00-2-2z" fill="#26A6D4"/>
      <path d="M89.842 70.423c.75 0 1.36-.604 1.36-1.348 0-.744-.61-1.348-1.36-1.348-.751 0-1.36.604-1.36 1.348 0 .744.609 1.348 1.36 1.348zM89.842 75.49c.75 0 1.36-.603 1.36-1.348 0-.744-.61-1.348-1.36-1.348-.751 0-1.36.604-1.36 1.348 0 .745.609 1.348 1.36 1.348zM89.842 80.56c.75 0 1.36-.604 1.36-1.349 0-.744-.61-1.348-1.36-1.348-.751 0-1.36.604-1.36 1.348 0 .745.609 1.348 1.36 1.348zM97.715 79.268V69.01a.571.571 0 10-1.142 0v10.257a.571.571 0 001.142 0z" fill="#fff"/>
      <path d="M101.144 79.268V69.01a.571.571 0 10-1.143 0v10.257a.572.572 0 001.143 0z" fill="#F5F5F5"/>
      <path d="M104.571 79.268V69.01a.572.572 0 00-1.143 0v10.257a.571.571 0 001.143 0z" fill="#fff"/>
      <path d="M108.001 79.268V69.01a.571.571 0 10-1.143 0v10.257a.572.572 0 001.143 0z" fill="#F5F5F5"/>
      <path d="M111.43 79.268V69.01a.572.572 0 00-1.143 0v10.257a.571.571 0 001.143 0z" fill="#fff"/>
      <path d="M119.714 88.585H32.857a2 2 0 00-2 2v19.219a2 2 0 002 2h86.857a2 2 0 002-2v-19.22a2 2 0 00-2-2z" fill="#5D6A7A"/>
      <path d="M78.402 94.49H40.116a2 2 0 00-2 2v7.327a2 2 0 002 2h38.286a2 2 0 002-2V96.49a2 2 0 00-2-2z" fill="#1F8AB0"/>
      <path d="M89.842 96.474c.75 0 1.36-.603 1.36-1.348 0-.744-.61-1.348-1.36-1.348-.751 0-1.36.604-1.36 1.348 0 .745.609 1.348 1.36 1.348zM89.842 101.541c.75 0 1.36-.603 1.36-1.348 0-.744-.61-1.347-1.36-1.347-.751 0-1.36.603-1.36 1.347 0 .745.609 1.348 1.36 1.348zM89.842 106.61c.75 0 1.36-.603 1.36-1.348 0-.744-.61-1.348-1.36-1.348-.751 0-1.36.604-1.36 1.348 0 .745.609 1.348 1.36 1.348z" fill="#fff"/>
      <path d="M97.715 105.319V95.062a.571.571 0 10-1.142 0v10.257a.57.57 0 101.142 0zM101.144 105.319V95.062a.571.571 0 00-1.143 0v10.257a.571.571 0 001.143 0zM104.571 105.319V95.062a.572.572 0 00-1.143 0v10.257a.57.57 0 101.143 0zM108.001 105.319V95.062a.571.571 0 00-1.143 0v10.257a.571.571 0 001.143 0zM111.43 105.319V95.062a.572.572 0 00-1.143 0v10.257a.57.57 0 101.143 0z" fill="#F7F9FC"/>
    </g>
  </g>
  <path d="M161.492 100.747l4.124-4.554-13.003-12.253 12.002-13.236-4.47-4.216-12.007 13.236-4.125 4.554 17.479 16.469z" fill="#2FC29F"/>
  <path d="M174.644 100.23l4.13-4.554-13.004-12.253 12.002-13.236-4.474-4.216-12.003 13.235-4.129 4.555 17.478 16.469z" fill="#2FC29F"/>
  <defs>
    <filter id="filter0_f" x="23.364" y="109.542" width="116.344" height="26.862" filterUnits="userSpaceOnUse" color-interpolation-filters="sRGB">
      <feFlood flood-opacity="0" result="BackgroundImageFix"/>
      <feBlend in="SourceGraphic" in2="BackgroundImageFix" result="shape"/>
      <feGaussianBlur stdDeviation="5" result="effect1_foregroundBlur"/>
    </filter>
    <filter id="filter1_d" x="26.857" y="26.571" width="98.857" height="103.143" filterUnits="userSpaceOnUse" color-interpolation-filters="sRGB">
      <feFlood flood-opacity="0" result="BackgroundImageFix"/>
      <feColorMatrix in="SourceAlpha" values="0 0 0 0 0 0 0 0 0 0 0 0 0 0 0 0 0 0 127 0"/>
      <feOffset dy="4"/>
      <feGaussianBlur stdDeviation="2"/>
      <feColorMatrix values="0 0 0 0 0.533333 0 0 0 0 0.596078 0 0 0 0 0.666667 0 0 0 0.3 0"/>
      <feBlend in2="BackgroundImageFix" result="effect1_dropShadow"/>
      <feBlend in="SourceGraphic" in2="effect1_dropShadow" result="shape"/>
    </filter>
  </defs>
</svg>
