<svg width="164" height="30" fill="none" xmlns="http://www.w3.org/2000/svg">
  <path fill-rule="evenodd" clip-rule="evenodd" d="M11.072 27.49l.02-.01.02.01 5.515-3.163 5.556-3.185V8.398l-2.498 1.433-1.459.914-3.186 1.847v2.915l4.645-2.68v4.64l-.038 2.192-8.555 4.905-8.555-4.905-.038-2.193V9.831l.02-.011.018.01 8.555-4.904 6.032 3.458 2.56-1.468L11.112 2l-.02.01-.018-.01L0 8.348v12.794l5.557 3.185 5.515 3.163z" fill="#F7F9FC"/>
  <path fill-rule="evenodd" clip-rule="evenodd" d="M4.527 11.104l2.7 1.606v4.217l3.865 2.295 3.864-2.295v-.75l2.7-1.603v4.012l-6.564 3.897-6.565-3.897v-7.482zM36.2 21.118h-3.097L28.25 8.227h3.477l2.97 9.14h.072l2.952-9.14h3.422L36.2 21.117zm17.167-.783c-.628.328-1.361.595-2.2.801-.84.206-1.754.31-2.744.31-1.026 0-1.97-.164-2.834-.492a6.534 6.534 0 01-2.227-1.384 6.31 6.31 0 01-1.458-2.14c-.35-.83-.525-1.756-.525-2.776 0-1.032.178-1.966.534-2.804a6.238 6.238 0 011.476-2.14 6.53 6.53 0 012.209-1.356 7.754 7.754 0 012.734-.473c1.015 0 1.956.155 2.825.464.87.31 1.576.726 2.12 1.247l-1.957 2.24c-.301-.352-.7-.64-1.195-.865-.495-.224-1.056-.337-1.684-.337-.543 0-1.044.1-1.503.3-.459.201-.857.48-1.195.838-.338.358-.6.783-.788 1.275a4.494 4.494 0 00-.28 1.611c0 .595.084 1.141.253 1.639.169.498.42.925.752 1.283.331.358.742.638 1.23.838.49.2 1.048.3 1.676.3.362 0 .706-.027 1.032-.081.326-.055.628-.143.906-.265V16.02h-2.445v-2.513h5.288v6.828zm9.308-8.758a2.796 2.796 0 00-1.041-.81c-.43-.2-.843-.3-1.241-.3-.205 0-.413.018-.625.054a1.61 1.61 0 00-.57.21c-.17.103-.311.236-.426.4-.114.164-.172.373-.172.628 0 .219.045.4.136.546.09.146.223.274.399.383.175.109.383.21.624.3.242.091.513.185.815.282.435.146.888.307 1.358.483.471.176.9.41 1.286.7.386.292.706.653.96 1.084.253.431.38.968.38 1.611 0 .741-.136 1.381-.407 1.921-.272.54-.637.987-1.096 1.339a4.685 4.685 0 01-1.575.783 6.593 6.593 0 01-1.83.255c-.917 0-1.804-.161-2.661-.483-.858-.322-1.57-.78-2.137-1.375l2.028-2.075c.314.388.727.713 1.24.974.513.26 1.024.391 1.53.391.23 0 .453-.024.67-.073.218-.048.408-.127.571-.236.163-.11.293-.255.39-.437.096-.182.144-.4.144-.656 0-.242-.06-.449-.18-.619a1.774 1.774 0 00-.517-.464 4.15 4.15 0 00-.833-.382 42.9 42.9 0 00-1.132-.374c-.41-.133-.812-.291-1.204-.473a4.027 4.027 0 01-1.05-.701 3.245 3.245 0 01-.743-1.038c-.187-.407-.28-.901-.28-1.484 0-.716.144-1.329.434-1.839.29-.51.67-.928 1.141-1.256a4.888 4.888 0 011.594-.72 7.188 7.188 0 011.792-.227c.725 0 1.464.134 2.219.4a5.704 5.704 0 011.983 1.184l-1.974 2.094z" fill="#F7F9FC"/>
  <path d="M77.04 21.162c2.124 0 4.698-1.08 4.698-4.086 0-2.466-1.728-3.042-3.978-3.906-1.386-.54-1.854-.864-1.836-1.476 0-.612.45-.99 1.188-.99.72 0 1.512.342 2.61 1.206l1.692-2.196C80.19 8.67 78.66 8.022 76.986 8.058c-2.376.036-4.194 1.638-4.194 3.762 0 2.52 1.944 3.438 3.888 4.104 1.44.486 1.89.792 1.89 1.494 0 .576-.432 1.08-1.44 1.08-.882 0-2.052-.45-3.024-1.512l-1.764 2.142c1.368 1.404 3.06 2.034 4.698 2.034zM82.646 21h3.15l.756-2.304h4.464L91.772 21h3.132l-4.68-12.78h-2.88L82.646 21zm4.716-4.824l1.404-4.32h.036l1.422 4.32h-2.862zM97.839 21h3.06V10.902h3.348V8.22h-9.738v2.682h3.33V21zm8.315 0h8.712v-2.682h-5.778v-2.376h4.266V13.35h-4.266v-2.448h5.4V8.22h-8.334V21zm10.889 0h8.388v-2.682h-5.31V8.22h-3.078V21zm10.309 0h8.388v-2.682h-5.31V8.22h-3.078V21zm10.382 0h3.078V8.22h-3.078V21zm8.417 0h3.06V10.902h3.348V8.22h-9.738v2.682h3.33V21zm8.315 0h8.712v-2.682H157.4v-2.376h4.266V13.35H157.4v-2.448h5.4V8.22h-8.334V21z" fill="#F7F9FC"/>
</svg>
