<svg width="144" height="57" viewBox="0 0 144 57" fill="none" xmlns="http://www.w3.org/2000/svg">
  <path fill-rule="evenodd" clip-rule="evenodd" d="M24.4571 56L24.5 55.9757L24.5431 56L36.7257 49.0504L49 42.0524V14.0557L43.4808 17.203L40.2593 19.2119L33.2215 23.2692V29.6734L43.4808 23.7865V33.9777L43.4804 33.978L43.3969 38.7959L24.5 49.5722L5.60321 38.7959L5.51959 33.978L5.51933 33.9777V17.203L5.562 17.1787L5.60321 17.203L24.5 6.42754L37.8241 14.0253L43.4808 10.7995L24.542 0L24.5 0.0240262L24.4581 0L0 13.9469V42.0524L12.2743 49.0504L24.4571 56Z" transform="translate(0.43 0.5)" fill="#3C4B5E"/>
  <path fill-rule="evenodd" clip-rule="evenodd" d="M0 0L5.9633 3.52864V12.7933L14.4999 17.8345L23.0367 12.7933V11.1456L29 7.62377V16.437L14.4999 25L0 16.437V0Z" transform="translate(10.43 20.5)" fill="#AFAFAF"/>
  <path fill-rule="evenodd" clip-rule="evenodd" d="M17.56 29.08H10.72L0 0.76H7.68L14.24 20.84H14.4L20.92 0.76H28.48L17.56 29.08ZM55.48 27.36C54.0933 28.08 52.4733 28.6667 50.62 29.12C48.7667 29.5733 46.7467 29.8 44.56 29.8C42.2933 29.8 40.2067 29.44 38.3 28.72C36.3933 28 34.7533 26.9867 33.38 25.68C32.0067 24.3733 30.9333 22.8067 30.16 20.98C29.3867 19.1533 29 17.12 29 14.88C29 12.6133 29.3933 10.56 30.18 8.72C30.9667 6.87999 32.0533 5.31334 33.44 4.02C34.8267 2.72666 36.4533 1.73334 38.32 1.04C40.1867 0.346663 42.2 0 44.36 0C46.6 0 48.68 0.339996 50.6 1.02C52.52 1.7 54.08 2.61333 55.28 3.76L50.96 8.68C50.2933 7.90666 49.4133 7.27334 48.32 6.78C47.2267 6.28666 45.9867 6.04 44.6 6.04C43.4 6.04 42.2933 6.26 41.28 6.7C40.2667 7.14 39.3867 7.75333 38.64 8.54C37.8933 9.32667 37.3133 10.26 36.9 11.34C36.4867 12.42 36.28 13.6 36.28 14.88C36.28 16.1867 36.4667 17.3867 36.84 18.48C37.2133 19.5733 37.7667 20.5133 38.5 21.3C39.2333 22.0867 40.14 22.7 41.22 23.14C42.3 23.58 43.5333 23.8 44.92 23.8C45.72 23.8 46.48 23.74 47.2 23.62C47.92 23.5 48.5867 23.3067 49.2 23.04V17.88H43.8V12.36H55.48V27.36ZM76.04 8.12C75.4533 7.37333 74.6867 6.78 73.74 6.34C72.7933 5.9 71.88 5.68 71 5.68C70.5467 5.68 70.0867 5.72 69.62 5.8C69.1533 5.88 68.7333 6.03333 68.36 6.26C67.9867 6.48667 67.6733 6.78 67.42 7.14C67.1667 7.5 67.04 7.96 67.04 8.52C67.04 9 67.14 9.4 67.34 9.72C67.54 10.04 67.8333 10.32 68.22 10.56C68.6067 10.8 69.0667 11.02 69.6 11.22C70.1333 11.42 70.7333 11.6267 71.4 11.84C72.36 12.16 73.36 12.5133 74.4 12.9C75.44 13.2867 76.3867 13.8 77.24 14.44C78.0933 15.08 78.8 15.8733 79.36 16.82C79.92 17.7667 80.2 18.9467 80.2 20.36C80.2 21.9867 79.9 23.3933 79.3 24.58C78.7 25.7667 77.8933 26.7467 76.88 27.52C75.8667 28.2933 74.7067 28.8667 73.4 29.24C72.0933 29.6133 70.7467 29.8 69.36 29.8C67.3333 29.8 65.3733 29.4467 63.48 28.74C61.5867 28.0333 60.0133 27.0267 58.76 25.72L63.24 21.16C63.9333 22.0133 64.8467 22.7267 65.98 23.3C67.1133 23.8733 68.24 24.16 69.36 24.16C69.8667 24.16 70.36 24.1067 70.84 24C71.32 23.8933 71.74 23.72 72.1 23.48C72.46 23.24 72.7467 22.92 72.96 22.52C73.1733 22.12 73.28 21.64 73.28 21.08C73.28 20.5467 73.1467 20.0933 72.88 19.72C72.6133 19.3467 72.2333 19.0067 71.74 18.7C71.2467 18.3933 70.6333 18.1133 69.9 17.86C69.1667 17.6067 68.3333 17.3333 67.4 17.04C66.4933 16.7467 65.6067 16.4 64.74 16C63.8733 15.6 63.1 15.0867 62.42 14.46C61.74 13.8333 61.1933 13.0733 60.78 12.18C60.3667 11.2867 60.16 10.2 60.16 8.92C60.16 7.34666 60.48 6.00001 61.12 4.88C61.76 3.75999 62.6 2.84 63.64 2.12C64.68 1.4 65.8533 0.873335 67.16 0.54C68.4667 0.206665 69.7867 0.04 71.12 0.04C72.72 0.04 74.3533 0.33333 76.02 0.92C77.6867 1.50667 79.1467 2.37333 80.4 3.52L76.04 8.12Z" transform="translate(62.83 13.42)" fill="#3C4B5E"/>
</svg>
