<svg width="90" height="58" viewBox="0 0 90 58" version="1.1" xmlns="http://www.w3.org/2000/svg" xmlns:xlink="http://www.w3.org/1999/xlink">
<title>Vector</title>
<desc>Created using Figma</desc>
<g id="Canvas" transform="translate(-147 -6044)">
<g id="Vector">
<use xlink:href="#path0_fill" transform="translate(147 6044)" />
</g>
</g>
<defs>
<path id="path0_fill" d="M 6.21875 0.00017036C 4.39582 0.12147 2.89858 0.700281 1.8125 1.78148C 0.57127 3.01728 0 4.83327 0 7.00017L 0 45.0002C 0 47.1634 0.56447 48.9531 1.8125 50.1877C 3.06053 51.4223 4.89036 52 7.09375 52L 60.0312 52C 63.1515 55.6721 67.8127 58 73 58C 82.377 58 90 50.3771 90 41.0002C 90 35.8129 87.672 31.1518 84 28.0315L 84 6.90648C 84 4.78008 83.4415 3.00358 82.2188 1.78148C 80.996 0.559481 79.2222 0.00017036 77.0938 0.00017036C 53.4919 0.00057036 29.7663 -0.00032964 6.21875 0.00017036ZM 7.03125 2.00017L 77.0938 2.00017C 78.6582 2.00017 79.7441 2.31768 80.5 2.90648C 68.3444 12.4152 56.7285 22.743 44.5 32.094C 42.7828 32.9349 41.2172 32.9349 39.5 32.094C 27.4828 22.4464 15.4866 12.6624 3.5 2.93773C 4.26878 2.32763 5.38582 2.00017 7.03125 2.00017ZM 81.6562 4.53148C 81.8864 5.16698 82 5.95208 82 6.90648L 82 26.594C 79.3874 24.9563 76.3057 24.0002 73 24.0002C 63.623 24.0002 56 31.6233 56 41.0002C 56 44.3059 56.9561 47.3876 58.5938 50L 7.09375 50C 5.21715 50 3.99072 49.5451 3.21875 48.7814C 2.44678 48.0178 2 46.8294 2 45.0002L 2 7.00017C 2 6.01627 2.13599 5.21633 2.375 4.56273C 14.5099 14.2318 26.3909 24.2821 38.5625 33.8752C 40.801 34.9945 43.199 34.9945 45.4375 33.8752C 57.5155 24.1375 69.5918 14.3151 81.6562 4.53148ZM 73 26.0002C 81.2961 26.0002 88 32.7041 88 41.0002C 88 49.2963 81.2961 56 73 56C 64.7039 56 58 49.2963 58 41.0002C 58 32.7041 64.7039 26.0002 73 26.0002ZM 72.8438 30.969C 70.0197 32.0766 67.0997 33.1478 64.6563 34.063C 64.275 34.2026 64.0008 34.5943 64.0001 35.0004C 64.0001 40.1813 65.0376 43.8656 66.6876 46.438C 68.3376 49.0101 70.5951 50.4163 72.8751 50.969C 73.0382 51.011 73.212 51.011 73.3751 50.969C 75.5444 50.4092 77.7637 48.9848 79.3751 46.4067C 80.9865 43.8285 82.0001 40.1339 82.0001 35.0004C 81.9994 34.5943 81.7252 34.2026 81.3438 34.063C 78.3076 33.1947 75.4859 31.645 72.8438 30.969Z"/>
</defs>
</svg>
