<svg width="97" height="72" xmlns="http://www.w3.org/2000/svg" xmlns:xlink="http://www.w3.org/1999/xlink">
  <use xlink:href="#path0_fill" />
  <use xlink:href="#path1_fill" transform="translate(10 20)" />
  <use xlink:href="#path2_fill" transform="translate(29 24)" />
  <use xlink:href="#path3_fill" transform="translate(53 24)" />
  <use xlink:href="#path4_fill" transform="translate(21 16)" />
  <g>
    <use xlink:href="#path5_fill" transform="translate(63 38)" />
    <use xlink:href="#path6_fill" transform="translate(65 40)" fill="#EFF3F6"/>
    <use xlink:href="#path7_fill" transform="translate(71 45)" />
  </g>
  <defs>
    <path id="path0_fill" fill-rule="evenodd" d="M8 0C3.58154 0 0 3.58154 0 8v48c0 4.4185 3.58154 8 8 8h72c4.4185 0 8-3.5815 8-8V8c0-4.41846-3.5815-8-8-8H8zm1 4C6.23877 4 4 6.23877 4 9v46c0 2.7612 2.23877 5 5 5h70c2.7612 0 5-2.2388 5-5V9c0-2.76123-2.2388-5-5-5H9z"/>
    <path id="path1_fill" d="M0 2C0 .89543.89543 0 2 0s2 .89543 2 2v20c0 1.1046-.89543 2-2 2s-2-.8954-2-2V2z"/>
    <path id="path2_fill" fill-rule="evenodd" d="M8 16c4.4185 0 8-3.5815 8-8 0-4.41846-3.5815-8-8-8-4.41846 0-8 3.58154-8 8 0 4.4185 3.58154 8 8 8zm0-2c3.3135 0 6-2.6865 6-6 0-3.31348-2.6865-6-6-6-3.31348 0-6 2.68652-6 6 0 3.3135 2.68652 6 6 6z"/>
    <path id="path3_fill" fill-rule="evenodd" d="M0 1c0-.552246.447754-1 1-1h2c.55225 0 1 .447754 1 1v2c0 .55225-.44775 1-1 1H1c-.552246 0-1-.44775-1-1V1zm6 0c0-.552246.44775-1 1-1h2c.55225 0 1 .447754 1 1v2c0 .55225-.44775 1-1 1H7c-.55225 0-1-.44775-1-1V1zm7-1c-.5522 0-1 .447754-1 1v2c0 .55225.4478 1 1 1h2c.5522 0 1-.44775 1-1V1c0-.552246-.4478-1-1-1h-2zM0 7c0-.55225.447754-1 1-1h2c.55225 0 1 .44775 1 1v2c0 .55225-.44775 1-1 1H1c-.552246 0-1-.44775-1-1V7zm7-1c-.55225 0-1 .44775-1 1v2c0 .55225.44775 1 1 1h2c.55225 0 1-.44775 1-1V7c0-.55225-.44775-1-1-1H7zm5 1c0-.55225.4478-1 1-1h2c.5522 0 1 .44775 1 1v2c0 .55225-.4478 1-1 1h-2c-.5522 0-1-.44775-1-1V7zM1 12c-.552246 0-1 .4478-1 1v2c0 .5522.447754 1 1 1h2c.55225 0 1-.4478 1-1v-2c0-.5522-.44775-1-1-1H1zm5 1c0-.5522.44775-1 1-1h2c.55225 0 1 .4478 1 1v2c0 .5522-.44775 1-1 1H7c-.55225 0-1-.4478-1-1v-2zm7-1c-.5522 0-1 .4478-1 1v2c0 .5522.4478 1 1 1h2c.5522 0 1-.4478 1-1v-2c0-.5522-.4478-1-1-1h-2z"/>
    <path id="path4_fill" fill-rule="evenodd" d="M6 0C2.68652 0 0 2.68652 0 6v20c0 3.3135 2.68652 6 6 6h44c3.3135 0 6-2.6865 6-6V6c0-3.31348-2.6865-6-6-6H6zm0 2C3.79102 2 2 3.79102 2 6v20c0 2.209 1.79102 4 4 4h44c2.209 0 4-1.791 4-4V6c0-2.20898-1.791-4-4-4H6z"/>
    <path id="path5_fill" d="M34 17c0 9.3888-7.6112 17-17 17-9.38884 0-17-7.6112-17-17C0 7.61116 7.61116 0 17 0c9.3888 0 17 7.61116 17 17z"/>
    <path id="path6_fill" d="M30 15c0 8.2843-6.7157 15-15 15-8.28427 0-15-6.7157-15-15C0 6.71573 6.71573 0 15 0c8.2843 0 15 6.71573 15 15z"/>
    <path id="path7_fill" d="M.65625 3.09399C3.09963 2.17879 6.01962 1.1076 8.84365 0c2.64215.676 5.46385 2.22569 8.50015 3.09399.3813.1396.6555.53128.6562.93738 0 5.1335-1.0136 8.82813-2.625 11.40633-1.6114 2.5781-3.8307 4.0026-6 4.5624-.16311.042-.33689.042-.5 0-2.28002-.5527-4.53749-1.959-6.1875-4.5311C1.03749 12.8966 0 9.21227 0 4.03137c.0007019-.4061.274929-.79778.65625-.93738z"/>
  </defs>
</svg>