<?xml version="1.0" standalone="no"?>
<!DOCTYPE svg PUBLIC "-//W3C//DTD SVG 20010904//EN"
 "http://www.w3.org/TR/2001/REC-SVG-20010904/DTD/svg10.dtd">
<svg version="1.0" xmlns="http://www.w3.org/2000/svg"
 width="800.000000pt" height="800.000000pt" viewBox="0 0 800.000000 800.000000"
 preserveAspectRatio="xMidYMid meet">
<metadata>
Created by potrace 1.11, written by Peter Selinger 2001-2013
</metadata>
<g transform="translate(0.000000,800.000000) scale(0.100000,-0.100000)"
fill="#000000" stroke="none">
<path d="M3695 7841 c-154 -88 -285 -163 -290 -167 -6 -5 -17 -10 -25 -12 -8
-2 -23 -11 -32 -19 -10 -9 -18 -12 -18 -7 0 5 -4 4 -8 -2 -4 -6 -74 -48 -157
-94 -82 -46 -166 -93 -187 -104 -214 -122 -427 -241 -443 -250 -11 -6 -22 -13
-25 -16 -3 -3 -19 -12 -35 -20 -17 -8 -71 -38 -120 -66 -358 -204 -536 -304
-545 -304 -5 0 -10 -4 -10 -10 0 -5 -4 -10 -10 -10 -5 0 -31 -13 -57 -28 -26
-16 -79 -45 -116 -66 -37 -20 -82 -45 -100 -55 -18 -10 -48 -27 -67 -37 -19
-11 -37 -21 -40 -25 -3 -3 -21 -13 -40 -22 -19 -10 -51 -27 -70 -38 -29 -18
-139 -80 -405 -229 -22 -13 -65 -36 -95 -53 -30 -16 -59 -33 -65 -37 -10 -7
-30 -19 -195 -111 l-85 -47 0 -2008 0 -2008 130 -74 c72 -40 159 -89 195 -109
116 -64 224 -126 253 -145 15 -11 27 -16 27 -12 0 4 8 0 18 -8 9 -9 44 -30 77
-47 33 -18 67 -36 75 -41 34 -22 192 -110 196 -110 2 0 21 -11 42 -23 44 -28
125 -74 167 -95 17 -9 32 -18 35 -21 3 -3 23 -15 45 -26 22 -11 42 -22 45 -25
3 -3 19 -12 35 -20 17 -8 32 -17 35 -20 3 -3 21 -13 40 -24 95 -51 146 -79
155 -86 6 -4 39 -23 75 -43 51 -27 652 -367 855 -482 22 -13 60 -34 85 -47 25
-12 47 -26 48 -30 2 -5 8 -8 12 -8 8 0 368 -201 440 -245 14 -9 41 -24 60 -33
19 -9 37 -20 40 -23 3 -3 39 -24 80 -46 41 -22 115 -63 164 -92 49 -28 94 -51
100 -51 5 0 89 44 186 99 96 54 191 108 210 118 19 11 89 50 155 88 66 37 208
117 315 178 107 60 224 126 260 147 36 21 91 52 122 69 81 43 102 55 108 61 3
3 19 12 35 20 17 8 45 25 64 37 18 13 37 20 42 17 5 -3 9 -1 9 4 0 5 48 35
108 67 59 32 109 61 112 64 3 3 39 24 80 45 41 21 77 42 80 45 3 4 16 12 30
18 14 7 57 30 95 53 39 22 81 46 95 52 14 7 27 15 30 18 3 3 26 17 52 30 26
14 158 88 294 165 136 77 275 155 308 174 316 177 483 271 492 278 10 8 23 15
144 81 36 19 74 41 85 49 20 13 20 25 21 2008 0 1097 -3 1995 -7 1995 -4 0
-10 -4 -13 -8 -3 -4 -31 -21 -63 -37 -32 -16 -86 -46 -121 -67 -34 -21 -67
-38 -72 -38 -6 0 -10 -5 -10 -12 0 -6 -3 -8 -6 -5 -4 4 -19 -2 -33 -12 -14
-10 -51 -31 -81 -47 -30 -16 -61 -35 -68 -41 -7 -7 -18 -13 -23 -13 -5 0 -26
-10 -47 -23 -20 -13 -62 -37 -92 -54 -106 -58 -136 -76 -268 -157 -73 -44
-144 -88 -157 -96 -118 -74 -335 -203 -376 -224 -8 -4 -23 -12 -34 -19 -11 -7
-74 -43 -140 -80 -66 -38 -136 -78 -155 -89 -19 -11 -55 -31 -80 -45 -114 -62
-161 -90 -172 -101 -7 -7 -16 -12 -20 -12 -4 0 -59 -29 -121 -65 l-114 -65 0
-455 c0 -250 2 -455 5 -455 4 0 151 83 287 162 28 15 75 42 105 59 30 17 72
40 92 52 46 28 136 77 165 91 13 6 23 14 23 19 0 4 5 7 10 7 6 0 54 25 108 56
89 52 123 71 222 127 19 11 69 39 111 63 42 24 81 44 87 44 6 0 12 4 14 9 2 5
39 28 83 51 44 24 91 51 105 60 14 10 34 20 45 24 19 6 20 1 20 -114 0 -66 -4
-120 -8 -120 -5 0 -5 -4 -2 -10 9 -15 12 -91 3 -96 -5 -3 -5 -10 -2 -16 9 -15
11 -118 2 -118 -4 0 -4 -10 0 -22 7 -21 8 -69 2 -93 -1 -5 -1 -12 0 -15 6 -16
4 -240 -3 -240 -4 0 -4 -8 0 -17 10 -22 9 -105 -1 -121 -4 -7 -4 -12 1 -12 6
0 9 -183 2 -200 -1 -3 0 -9 1 -15 6 -24 5 -62 -2 -82 -4 -13 -4 -23 0 -23 8 0
8 -108 -1 -116 -4 -4 -2 -14 3 -24 5 -10 7 -20 4 -22 -2 -3 -7 -151 -10 -329
-4 -288 -7 -325 -22 -334 -24 -15 -99 -58 -157 -90 -27 -16 -99 -56 -160 -90
-60 -35 -132 -75 -160 -90 -27 -16 -63 -37 -80 -47 -16 -10 -36 -21 -44 -25
-8 -3 -72 -39 -143 -80 -71 -40 -134 -73 -139 -73 -5 0 -9 -3 -9 -7 0 -5 -19
-17 -43 -27 -23 -11 -49 -25 -57 -32 -8 -6 -37 -24 -65 -38 -27 -15 -57 -31
-65 -37 -8 -5 -85 -48 -170 -96 -85 -47 -171 -95 -190 -106 -19 -11 -60 -33
-90 -50 -30 -16 -59 -33 -65 -37 -5 -4 -30 -18 -55 -32 -39 -22 -313 -176
-410 -231 -73 -41 -267 -151 -315 -177 -27 -15 -103 -58 -168 -95 l-118 -68
-39 18 c-22 10 -40 22 -40 27 0 4 -9 8 -20 8 -11 0 -20 3 -20 8 0 4 -17 15
-37 25 -21 10 -60 31 -88 47 -27 16 -62 35 -78 44 -15 8 -78 44 -140 80 -63
36 -119 66 -125 66 -7 0 -12 5 -12 10 0 6 -4 10 -9 10 -4 0 -102 53 -217 118
-115 65 -353 200 -529 299 -176 99 -338 191 -360 203 -22 13 -60 34 -84 48
-25 14 -68 38 -95 55 -28 16 -60 33 -71 38 -11 5 -33 17 -50 27 -34 21 -105
61 -185 105 -30 17 -67 38 -82 49 -14 10 -29 18 -32 18 -2 0 -31 15 -63 34
-32 18 -74 42 -93 53 -19 10 -86 47 -147 82 l-113 63 -1 47 c0 25 -3 163 -5
306 -3 143 -6 814 -7 1490 l-2 1230 64 38 c35 20 65 37 66 37 3 0 225 126 315
178 25 15 47 27 50 27 3 0 16 8 30 17 54 35 260 148 270 148 5 0 10 4 10 8 0
5 16 14 35 22 19 8 35 17 35 21 0 4 8 9 18 12 9 3 40 19 67 35 53 30 138 77
195 108 19 11 37 21 40 24 3 3 14 10 25 16 60 32 144 79 170 95 17 10 62 34
100 55 39 20 81 45 94 55 13 11 27 19 31 19 4 0 61 31 128 69 149 86 250 141
279 155 13 6 23 14 23 19 0 4 5 7 11 7 6 0 37 15 68 34 31 19 81 47 111 64 30
16 134 74 230 129 294 168 268 155 298 140 53 -26 257 -142 262 -147 3 -4 19
-13 35 -21 48 -25 167 -90 207 -116 21 -13 40 -23 42 -23 4 0 147 -81 176
-100 8 -6 22 -13 30 -17 8 -4 88 -49 179 -100 90 -51 167 -93 172 -93 4 0 9
-3 11 -7 3 -7 98 -60 155 -87 13 -6 23 -14 23 -18 0 -5 4 -8 10 -8 5 0 31 -13
57 -28 26 -16 84 -48 128 -72 44 -24 92 -51 107 -61 14 -11 28 -19 31 -19 3 0
44 -22 92 -50 48 -27 90 -50 95 -50 5 0 10 -3 12 -7 2 -5 20 -16 41 -26 37
-17 39 -17 80 5 23 13 44 25 47 28 5 5 67 40 125 69 16 9 32 19 35 22 3 3 10
8 15 10 17 6 329 182 335 189 3 3 34 20 70 39 36 19 67 37 70 40 3 3 21 13 39
22 l35 16 -105 59 c-57 32 -113 64 -124 71 -11 7 -29 16 -40 21 -11 5 -45 24
-75 42 -30 18 -84 48 -120 67 -36 20 -70 40 -77 45 -7 5 -27 18 -45 27 -50 26
-111 61 -238 133 -63 36 -137 78 -165 93 -70 39 -167 94 -185 105 -55 34 -304
170 -311 170 -5 0 -9 4 -9 9 0 5 -12 14 -27 20 -16 5 -50 23 -78 39 -27 16
-72 42 -100 57 -27 16 -63 36 -80 46 -31 18 -95 54 -155 85 -19 11 -37 21 -40
24 -6 6 -9 8 -184 105 -72 40 -160 90 -196 111 -36 21 -68 38 -72 37 -3 -1
-12 4 -18 12 -7 8 -16 15 -21 15 -5 0 -46 23 -93 50 -47 28 -89 50 -95 50 -6
0 -11 4 -11 8 0 7 -70 43 -81 41 -2 0 -130 -71 -284 -158z"/>
<path d="M1850 5178 c-1 -18 -1 -539 -1 -1157 l-1 -1123 24 -14 c13 -7 39 -22
58 -32 84 -47 166 -93 180 -102 30 -19 352 -200 356 -200 2 0 33 -18 69 -40
36 -22 67 -40 69 -40 2 0 64 -34 137 -76 210 -119 222 -126 264 -148 22 -12
42 -24 43 -28 2 -5 8 -8 12 -8 5 0 64 -31 131 -70 66 -38 123 -70 125 -70 2 0
33 -18 69 -40 36 -22 67 -40 69 -40 3 0 42 -22 88 -48 46 -26 90 -51 98 -55 8
-4 29 -15 45 -25 28 -17 52 -31 160 -92 22 -12 63 -35 90 -50 l50 -29 70 41
c70 40 104 59 225 126 36 20 67 38 70 41 3 3 31 20 63 36 32 17 66 35 75 40 9
6 49 28 87 50 77 44 79 45 227 128 107 60 147 83 260 148 36 22 71 39 77 39 6
0 11 5 11 10 0 6 5 10 11 10 5 0 56 26 112 59 56 32 122 69 147 83 166 93 295
166 355 201 39 23 88 51 110 63 22 12 65 35 95 53 30 17 74 41 98 53 l42 22 0
165 c1 530 -1 1065 -4 1068 -6 6 -40 -11 -156 -79 -25 -14 -115 -65 -200 -112
-85 -48 -162 -91 -170 -96 -69 -42 -212 -120 -220 -120 -6 0 -10 -3 -10 -7 0
-5 -19 -17 -43 -28 -73 -35 -74 -37 -73 -160 l1 -110 -63 -37 c-35 -21 -68
-38 -73 -38 -5 0 -9 -4 -9 -9 0 -5 -8 -11 -17 -14 -17 -5 -111 -57 -178 -97
-26 -15 -62 -35 -170 -94 -11 -6 -22 -13 -25 -16 -3 -3 -21 -13 -40 -24 -106
-57 -124 -67 -134 -75 -11 -9 -154 -87 -193 -105 -13 -6 -23 -14 -23 -18 0 -5
-5 -8 -11 -8 -6 0 -54 -25 -107 -55 -121 -70 -130 -75 -167 -94 -16 -9 -33
-20 -36 -24 -6 -9 -99 38 -236 119 -41 24 -76 44 -77 44 -2 0 -58 32 -125 70
-68 39 -127 70 -132 70 -5 0 -9 5 -9 10 0 6 -5 10 -11 10 -6 0 -24 9 -40 21
-16 11 -29 17 -29 13 0 -3 -6 -2 -12 4 -12 9 -213 125 -353 202 -33 18 -73 41
-90 51 -16 10 -52 30 -80 44 -87 46 -80 -18 -79 703 0 450 -3 645 -10 651 -11
8 -36 23 -136 79 -25 14 -90 51 -145 82 -55 31 -120 68 -145 82 -25 14 -76 43
-115 65 -124 71 -169 96 -200 111 -16 9 -32 18 -35 21 -3 3 -24 16 -47 29
l-43 23 0 -33z"/>
</g>
</svg>
